<?xml version="1.0" standalone="no"?>
<!DOCTYPE svg PUBLIC "-//W3C//DTD SVG 20010904//EN"
 "http://www.w3.org/TR/2001/REC-SVG-20010904/DTD/svg10.dtd">
<svg version="1.0" xmlns="http://www.w3.org/2000/svg"
 width="268.000000pt" height="268.000000pt" viewBox="0 0 268.000000 268.000000"
 preserveAspectRatio="xMidYMid meet">
<metadata>
Created by potrace 1.14, written by Peter Selinger 2001-2017
</metadata>
<g transform="translate(0.000000,268.000000) scale(0.100000,-0.100000)"
fill="#000000" stroke="none">
<path d="M1689 2233 c-1 -19 -1 -95 0 -125 1 -16 13 -18 111 -18 81 0 110 -3
111 -12 0 -7 1 -59 2 -115 l0 -103 81 3 81 2 0 190 0 190 -193 3 c-178 2 -192
1 -193 -15z"/>
<path d="M1210 1991 c-89 -29 -141 -60 -206 -125 -97 -97 -142 -206 -142 -343
0 -282 234 -503 516 -486 175 10 336 119 411 277 34 71 41 97 45 186 12 229
-140 437 -360 494 -81 21 -195 20 -264 -3z m258 -183 c65 -24 132 -88 164
-156 31 -66 31 -188 2 -253 -31 -66 -87 -124 -152 -156 -72 -35 -182 -38 -253
-6 -166 74 -237 262 -159 420 76 153 233 213 398 151z"/>
<path d="M863 904 c-10 -27 19 -151 52 -219 71 -148 210 -243 368 -252 106 -7
185 8 273 52 152 74 271 239 277 383 l2 46 -83 1 c-46 1 -85 -2 -87 -6 -3 -4
-7 -24 -11 -45 -16 -110 -131 -220 -258 -249 -177 -39 -328 64 -352 242 -3 26
-8 50 -10 52 -2 2 -40 5 -85 6 -60 1 -82 -2 -86 -11z"/>
</g>
</svg>
