<svg width="178" height="46" viewBox="0 0 178 46" fill="none" xmlns="http://www.w3.org/2000/svg">
<g clip-path="url(#clip0_276_2893)">
<path d="M12.2304 30.3708C5.48028 30.3708 0 24.9015 0 18.1649C0 11.4283 5.48028 5.95898 12.2304 5.95898C18.9805 5.95898 24.4608 11.4283 24.4608 18.1649C24.4608 24.9015 18.9805 30.3708 12.2304 30.3708ZM12.2304 10.3833C7.93082 10.3833 4.43324 13.8739 4.43324 18.1649C4.43324 22.4558 7.93082 25.9464 12.2304 25.9464C16.53 25.9464 20.0275 22.4558 20.0275 18.1649C20.0275 13.8739 16.53 10.3833 12.2304 10.3833Z" fill="#992861"/>
<path d="M20.0275 33.3496C20.0275 37.6406 15.8616 41.1311 11.562 41.1311C7.26243 41.1311 4.43318 37.6406 4.43318 33.3496H0.0222168C0.0222168 40.0862 4.83417 45.5555 11.5843 45.5555C18.3344 45.5555 24.483 40.0862 24.483 33.3496H20.0275Z" fill="#992861"/>
<path d="M30.3643 9.67134V0H20.6736V4.02417H26.3321V9.67134H30.3643Z" fill="#992861"/>
<path d="M66.1198 9.0266C64.5603 7.53699 62.2212 6.69214 60.1939 6.69214C55.2038 6.69214 52.174 10.4717 52.174 15.2518C52.174 19.0759 54.4018 23.0111 60.1939 23.0111C62.0207 23.0111 63.6247 22.6109 65.4515 21.1436V17.0305H59.5033V13.1397H69.4837V22.9222C67.1891 25.5457 64.293 27.102 60.1939 27.102C51.4389 27.102 47.8967 21.3659 47.8967 15.2518C47.8967 8.71533 51.9958 2.66797 60.1939 2.66797C63.3128 2.66797 66.4539 3.86855 68.8376 6.22524L66.1198 9.0266Z" fill="#18181B"/>
<path d="M96.7069 26.5897H91.494L84.6993 18.8304H80.4666V26.5897H76.0779V3.33398C79.776 3.33398 83.4518 3.37845 87.1498 3.37845C92.6301 3.42292 95.5262 7.06912 95.5262 11.0711C95.5262 14.2504 94.0559 17.4741 89.6449 18.3635L96.7069 26.3006V26.5897ZM80.4888 7.44708V14.8729H87.1721C89.9568 14.8729 91.1598 13.0053 91.1598 11.16C91.1598 9.31465 89.9345 7.44708 87.1721 7.44708H80.4888Z" fill="#18181B"/>
<path d="M119.697 22.211H107.511L105.506 26.5909H100.739L111.187 3.35742H115.977L126.425 26.5909H121.635L119.697 22.211ZM113.615 8.24867L109.294 18.1423H117.937L113.615 8.24867Z" fill="#18181B"/>
<path d="M145.762 3.33398H150.151V26.6119H147.433V26.6341L135.18 10.9377V26.6119H130.792V3.35622H134.356L145.762 17.7632V3.33398Z" fill="#18181B"/>
<path d="M177.998 14.7852C178.109 20.6547 174.5 26.6131 166.347 26.6131H157.19V3.35742H166.347C174.322 3.35742 177.886 9.02683 177.998 14.7852ZM161.557 22.3666H166.347C171.626 22.3666 173.743 18.5203 173.631 14.7407C173.52 11.1167 171.404 7.51499 166.347 7.51499H161.557V22.3666Z" fill="#18181B"/>
<path d="M157.28 36.6172V37.7288H151.933V40.9971H157.057V42.0865H151.933V45.9995H150.775V36.6172H157.28Z" fill="#992861"/>
<path d="M122.306 36.6172L126.523 45.9995H125.26L124.333 43.9363H118.962L118.049 45.9995H116.772L120.989 36.6172H122.306ZM121.649 37.7978L119.419 42.8647H123.877L121.647 37.7978H121.649Z" fill="#992861"/>
<path d="M95.3257 37.6621V36.6172H102.9V37.6621H99.6899V45.9995H98.5359V37.6621H95.3257Z" fill="#992861"/>
<path d="M130.351 36.6172L136.112 43.8007V36.6172H137.266V45.9995H136.459L130.685 38.8427V45.9995H129.531V36.6172H130.351Z" fill="#992861"/>
<path d="M145.602 37.9242C145.138 37.7308 144.639 37.6307 144.107 37.6218C143.463 37.6218 142.906 37.753 142.436 38.0154C141.966 38.2777 141.734 38.6601 141.734 39.167C141.734 39.3983 141.794 39.6006 141.915 39.7718C142.035 39.943 142.22 40.0853 142.469 40.1964C142.719 40.3076 142.971 40.3965 143.225 40.461C143.479 40.5255 143.799 40.5877 144.185 40.6478C144.633 40.7167 144.994 40.7811 145.268 40.8412C145.542 40.9012 145.858 40.9968 146.217 41.1302C146.573 41.2636 146.851 41.4148 147.048 41.5882C147.246 41.7594 147.415 41.9928 147.558 42.2908C147.7 42.5865 147.769 42.9311 147.769 43.3268C147.769 43.8071 147.66 44.2273 147.44 44.5874C147.219 44.9476 146.927 45.2255 146.562 45.4234C146.197 45.6213 145.807 45.7658 145.395 45.8614C144.982 45.9548 144.548 46.0037 144.091 46.0037C143.231 46.0037 142.463 45.8347 141.783 45.4945C141.104 45.1544 140.6 44.6297 140.275 43.9182L141.204 43.378C141.478 43.8849 141.886 44.2739 142.423 44.5496C142.96 44.8253 143.521 44.9609 144.105 44.9609C144.405 44.9609 144.695 44.9343 144.976 44.8831C145.256 44.832 145.526 44.7453 145.789 44.6252C146.052 44.5052 146.261 44.3318 146.422 44.1028C146.582 43.8738 146.66 43.6025 146.66 43.2846C146.66 43.0178 146.593 42.7866 146.459 42.5909C146.326 42.3953 146.127 42.2352 145.86 42.1151C145.593 41.9951 145.325 41.8995 145.054 41.8328C144.782 41.7638 144.45 41.6994 144.053 41.6393C143.641 41.5793 143.296 41.5171 143.015 41.4526C142.735 41.3881 142.432 41.2925 142.106 41.1702C141.779 41.0457 141.518 40.899 141.32 40.7322C141.122 40.5655 140.957 40.3454 140.823 40.0764C140.69 39.8073 140.623 39.4939 140.623 39.1426C140.614 38.6957 140.716 38.3044 140.926 37.9642C141.135 37.6241 141.416 37.3617 141.763 37.1727C142.111 36.9838 142.481 36.8437 142.873 36.7548C143.265 36.6636 143.666 36.6191 144.078 36.6191C144.851 36.6191 145.522 36.7348 146.09 36.966C146.658 37.1972 147.126 37.6263 147.495 38.2533L146.644 38.7802C146.413 38.4022 146.065 38.1176 145.599 37.9242H145.602Z" fill="#992861"/>
<path d="M109.36 42.6223H107.077V45.9995H105.91V36.6172H110.18C111.183 36.6172 111.965 36.9129 112.524 37.5021C113.083 38.0912 113.364 38.7982 113.364 39.6209C113.373 40.3901 113.154 41.0482 112.707 41.5974C112.259 42.1465 111.579 42.4578 110.666 42.5289L113.769 45.9995H112.292L109.365 42.6223H109.36ZM111.664 41.0349C112.018 40.6725 112.194 40.21 112.194 39.6475C112.203 39.1295 112.029 38.6693 111.671 38.2669C111.312 37.8645 110.815 37.6644 110.18 37.6644H107.077V41.5774H110.127C110.797 41.5774 111.312 41.3973 111.664 41.0349Z" fill="#992861"/>
<path d="M173.569 42.6223H171.286V45.9995H170.118V36.6172H174.389C175.391 36.6172 176.173 36.9129 176.732 37.5021C177.292 38.0912 177.572 38.7982 177.572 39.6209C177.581 40.3901 177.363 41.0482 176.915 41.5974C176.467 42.1465 175.788 42.4578 174.874 42.5289L177.978 45.9995H176.501L173.573 42.6223H173.569ZM175.872 41.0349C176.227 40.6725 176.403 40.21 176.403 39.6475C176.412 39.1295 176.238 38.6693 175.879 38.2669C175.52 37.8645 175.024 37.6644 174.389 37.6644H171.286V41.5774H174.335C175.006 41.5774 175.52 41.3973 175.872 41.0349Z" fill="#992861"/>
<path d="M160.289 36.6175H166.897V37.6891H161.443V40.6238H166.667V41.7088H161.443V44.8859H167.111V45.9975H160.289V36.6152V36.6175Z" fill="#992861"/>
</g>
<defs>
<clipPath id="clip0_276_2893">
<rect width="178" height="46" fill="white"/>
</clipPath>
</defs>
</svg>
