<svg width="18" height="19" viewBox="0 0 18 19" fill="none" xmlns="http://www.w3.org/2000/svg">
<path id="Vector" d="M17 2.07199V14.6429C17 14.9584 16.7441 15.2143 16.4286 15.2143C16.113 15.2143 15.8571 14.9584 15.8571 14.6429V3.45098L1.97549 17.3327C1.75233 17.5558 1.39053 17.5558 1.16737 17.3327C0.944209 17.1095 0.944209 16.7477 1.16737 16.5245L15.049 2.64286H3.85714C3.54156 2.64286 3.28572 2.38702 3.28572 2.07143C3.28572 1.75584 3.54156 1.5 3.85714 1.5H16.4286C16.579 1.5 16.7232 1.55927 16.8302 1.66487L16.8327 1.66737C16.9331 1.76783 16.9923 1.90186 16.9993 2.0431C16.9998 2.05251 17 2.06251 17 2.07199Z" fill="white" stroke="white" stroke-width="1.5"/>
</svg>
