<svg width="26" height="26" viewBox="0 0 26 26" fill="none" xmlns="http://www.w3.org/2000/svg">
<g id="check">
<path id="Vector" d="M22.8265 6.19966L9.56247 19.3535L3.17347 13.0176C3.10964 12.9543 3.03386 12.9041 2.95046 12.8698C2.86706 12.8355 2.77767 12.8179 2.6874 12.8179C2.59713 12.8179 2.50774 12.8355 2.42435 12.8698C2.34095 12.9041 2.26517 12.9543 2.20134 13.0176C2.1375 13.0809 2.08687 13.156 2.05233 13.2387C2.01778 13.3214 2 13.4101 2 13.4996C2 13.5891 2.01778 13.6778 2.05233 13.7605C2.08687 13.8432 2.1375 13.9183 2.20134 13.9816L9.0764 20.7995C9.1401 20.8631 9.21584 20.9135 9.29925 20.9479C9.38267 20.9823 9.47212 21 9.56247 21C9.65281 21 9.74226 20.9823 9.82568 20.9479C9.9091 20.9135 9.98484 20.8631 10.0485 20.7995L23.7987 7.16371C23.9276 7.03587 24 6.86248 24 6.68169C24 6.50089 23.9276 6.3275 23.7987 6.19966C23.6698 6.07182 23.4949 6 23.3126 6C23.1303 6 22.9554 6.07182 22.8265 6.19966Z" fill="#992861"/>
</g>
</svg>
