<svg width="18" height="18" viewBox="0 0 18 18" fill="none" xmlns="http://www.w3.org/2000/svg">
<path id="Vector" d="M17 1.57199V14.1429C17 14.4584 16.7441 14.7143 16.4286 14.7143C16.113 14.7143 15.8571 14.4584 15.8571 14.1429V2.95098L1.97549 16.8327C1.75233 17.0558 1.39053 17.0558 1.16737 16.8327C0.944209 16.6095 0.944209 16.2477 1.16737 16.0245L15.049 2.14286H3.85714C3.54156 2.14286 3.28572 1.88702 3.28572 1.57143C3.28572 1.25584 3.54156 1 3.85714 1H16.4286C16.579 1 16.7232 1.05927 16.8302 1.16487L16.8327 1.16737C16.9331 1.26783 16.9923 1.40186 16.9993 1.5431C16.9998 1.55251 17 1.56251 17 1.57199Z" fill="#992861" stroke="#992861" stroke-width="1.5"/>
</svg>
