<svg width="15" height="15" viewBox="0 0 15 15" fill="none" xmlns="http://www.w3.org/2000/svg">
<path d="M7.59624 9.62557C9.04844 9.62557 10.2257 8.45194 10.2257 7.00419C10.2257 5.55644 9.04844 4.38281 7.59624 4.38281C6.14404 4.38281 4.9668 5.55644 4.9668 7.00419C4.9668 8.45194 6.14404 9.62557 7.59624 9.62557Z" fill="#F4F5F7"/>
<path d="M10.4526 0H4.69503C2.40561 0 0.546875 1.85305 0.546875 4.13546V9.83018C0.546875 12.1578 2.40561 14.0108 4.69503 14.0108H10.4073C12.742 14.0108 14.6007 12.1578 14.6007 9.87538V4.13546C14.6007 1.85305 12.742 0 10.4526 0ZM7.59648 10.4403C5.66974 10.4403 4.15101 8.88106 4.15101 7.00542C4.15101 5.12977 5.69241 3.5705 7.59648 3.5705C9.47788 3.5705 11.0193 5.12977 11.0193 7.00542C11.0193 8.88106 9.50055 10.4403 7.59648 10.4403ZM12.3567 3.88688C12.13 4.13546 11.79 4.27104 11.4046 4.27104C11.0646 4.27104 10.7246 4.13546 10.4526 3.88688C10.2032 3.6383 10.0672 3.32192 10.0672 2.93776C10.0672 2.55359 10.2032 2.25981 10.4526 1.98863C10.7019 1.71746 11.0193 1.58187 11.4046 1.58187C11.7446 1.58187 12.1073 1.71746 12.3567 1.96604C12.5833 2.25981 12.742 2.59878 12.742 2.96035C12.7193 3.32192 12.5833 3.6383 12.3567 3.88688Z" fill="#F4F5F7"/>
<path d="M11.4276 2.39453C11.1329 2.39453 10.8835 2.64311 10.8835 2.93689C10.8835 3.23066 11.1329 3.47924 11.4276 3.47924C11.7222 3.47924 11.9716 3.23066 11.9716 2.93689C11.9716 2.64311 11.7449 2.39453 11.4276 2.39453Z" fill="#F4F5F7"/>
</svg>
