<svg width="15" height="15" viewBox="0 0 15 15" fill="none" xmlns="http://www.w3.org/2000/svg">
<path d="M13.8586 0H1.64021C1.06277 0 0.60083 0.458404 0.60083 1.03141V13.1791C0.60083 13.7292 1.06277 14.2105 1.64021 14.2105H13.8124C14.3899 14.2105 14.8518 13.7521 14.8518 13.1791V1.00849C14.898 0.458404 14.4361 0 13.8586 0ZM4.82762 12.0789H2.72577V5.31749H4.82762V12.0789ZM3.76515 4.37776C3.07223 4.37776 2.541 3.82767 2.541 3.16299C2.541 2.4983 3.09533 1.94822 3.76515 1.94822C4.43497 1.94822 4.9893 2.4983 4.9893 3.16299C4.9893 3.82767 4.48116 4.37776 3.76515 4.37776ZM12.7962 12.0789H10.6943V8.80136C10.6943 8.02207 10.6712 6.99066 9.58565 6.99066C8.47698 6.99066 8.3153 7.86163 8.3153 8.7326V12.0789H6.21346V5.31749H8.26911V6.25722H8.29221C8.59247 5.70713 9.26229 5.15705 10.3017 5.15705C12.4497 5.15705 12.8424 6.53226 12.8424 8.41172V12.0789H12.7962Z" fill="#F4F5F7"/>
</svg>
